<?xml version="1.0" encoding="utf-8"?>
<!-- Generator: Adobe Illustrator 24.0.2, SVG Export Plug-In . SVG Version: 6.00 Build 0)  -->
<svg version="1.1" id="Layer_1" xmlns="http://www.w3.org/2000/svg" xmlns:xlink="http://www.w3.org/1999/xlink" x="0px" y="0px"
	 viewBox="0 0 1526 361" style="enable-background:new 0 0 1526 361;" xml:space="preserve">
<style type="text/css">
	.st0{fill:#212741;}
</style>
<g>
	<path class="st0" d="M63.82,52.36c0,7.8-3.1,14.5-9.2,19.9c-6.1,5.5-13.5,8.2-22.1,8.2s-15.9-2.7-21.9-8.2s-9-12.1-9-19.9
		s3-14.5,9-20.2s13.3-8.4,21.9-8.4s16,2.7,22.1,8.2S63.82,44.26,63.82,52.36z M55.82,155.96v175.4c0,12.9-10.5,23.4-23.4,23.4l0,0
		c-12.9,0-23.4-10.5-23.4-23.4v-175.4c0-12.9,10.5-23.4,23.4-23.4l0,0C45.42,132.56,55.82,143.06,55.82,155.96z"/>
	<path class="st0" d="M133.42,169.16c6.3-12.5,16.1-22.7,29.4-30.7c13.3-8,28.5-11.9,45.8-11.9c25.1,0,44.7,7.6,58.9,22.7
		c8.3,8.9,22.1,8.8,31.1,0.7c4.9-4.5,10.4-8.4,16.5-11.7c14.3-7.8,29.9-11.7,46.8-11.7c28.9,0,50.8,8.4,65.7,25.3
		c14.9,16.9,22.4,38.6,22.4,65.2v115.7c0,12.2-9.9,22.2-22.2,22.2h-2.5c-12.2,0-22.2-9.9-22.2-22.2v-101.3c0-45.3-17.4-68-52.3-68
		c-19.9,0-34.8,7-44.8,21.1s-14.9,30.8-14.9,50.2v97.9c0,12.2-9.9,22.2-22.2,22.2h-2.5c-12.2,0-22.2-9.9-22.2-22.2v-110
		c0-39.4-16.6-59.1-49.8-59.1c-17.3,0-31.6,6.7-43.1,20.2c-11.4,13.4-17.2,31.1-17.2,53v96c0,12.2-9.9,22.2-22.2,22.2h-2.5
		c-12.2,0-22.2-9.9-22.2-22.2v-152.4c0-9-0.2-17.3-0.4-24.8c-0.5-12.6,9.6-23,22.1-23l0,0c11.8,0,21.5,9.3,22.1,21.1
		c0.3,5.8,0.5,11,0.5,15.5H133.42z"/>
	<path class="st0" d="M681.52,159.26c24.2,21.9,36.3,49.9,36.3,83.9c0,34.1-12.2,62.2-36.6,84.4s-54.6,33.3-90.8,33.3
		s-66.4-11.1-90.6-33.3c-24.2-22.2-36.3-50.3-36.3-84.4s12-62,36.1-83.9c24.1-21.9,54.3-32.8,90.8-32.8
		C626.92,126.46,657.32,137.36,681.52,159.26z M647.92,300.16c14.1-15.8,21.2-34.8,21.2-57s-7-41.1-21.2-56.7
		c-14.1-15.6-33.3-23.4-57.5-23.4s-43.4,7.8-57.5,23.4s-21.1,34.5-21.1,56.7s7.1,41.2,21.1,57s33.3,23.7,57.5,23.7
		C614.72,323.86,633.82,315.96,647.92,300.16z"/>
	<path class="st0" d="M780.22,319.56h-1v12.5c0,12.5-10.1,22.6-22.7,22.6l0,0c-12.5,0-22.7-10.1-22.7-22.6V22.96
		c0-12.5,10.1-22.6,22.7-22.6h1.5c12.5,0,22.7,10.1,22.7,22.6v142.9h1.5c8.6-11.6,20.2-21,34.8-28.4c14.6-7.3,31-11,49.3-11
		c34.5,0,62.8,11.2,84.9,33.5c22.1,22.4,33.1,50.1,33.1,83.2c0,33.4-11,61.4-32.8,83.9c-21.9,22.5-50.6,33.8-86.1,33.8
		c-16.9,0-33.1-3.6-48.5-10.8S789.22,332.76,780.22,319.56z M915.12,300.16c13.9-15.8,20.9-34.8,20.9-57s-7-41.1-20.9-56.7
		s-33.2-23.4-57.7-23.4c-23.2,0-42.3,8-57.2,23.9s-22.4,34.9-22.4,56.7c0,21.9,7.5,40.7,22.4,56.5s34,23.7,57.2,23.7
		C881.92,323.86,901.22,315.96,915.12,300.16z"/>
</g>
<path class="st0" d="M1527.52,241.66v15h-187.6c0.7,19.1,8.5,35.1,23.4,48.1s32.7,19.5,53.3,19.5c29.5,0,52.4-11.3,68.7-33.8
	l32.8,24.9c-24.9,30.3-58.7,45.5-101.5,45.5c-36.2,0-65.9-10.8-89.3-32.3s-35.1-49.7-35.1-84.4c0-34.4,11.6-62.6,34.8-84.6
	c23.2-22,52.3-33.1,87.1-33.1s62.5,10.4,82.9,31.2C1517.32,178.26,1527.52,206.36,1527.52,241.66z M1339.82,223.86h140.4
	c-0.7-18.4-6.6-33.5-17.9-45.2s-27.4-17.6-48.3-17.6c-19.9,0-36.8,6.1-50.8,18.3C1349.32,191.46,1341.52,206.36,1339.82,223.86z"/>
<path class="st0" d="M1023.27,360.86L1023.27,360.86c-12.95,0-23.45-10.5-23.45-23.45V23.81c0-12.95,10.5-23.45,23.45-23.45h0
	c12.95,0,23.45,10.5,23.45,23.45v313.6C1046.72,350.36,1036.22,360.86,1023.27,360.86z"/>
<path class="st0" d="M1188.01,324.23c-20.6,0-38.4-6.5-53.3-19.5s-22.7-29-23.4-48.1h167.59c-0.35-4.06-0.53-8.21-0.53-12.47
	c0-19.87,3.88-37.66,11.62-53.4c-5.05-12.61-12.24-23.67-21.57-33.14c-20.4-20.8-48.1-31.2-82.9-31.2s-63.9,11.1-87.1,33.1
	c-23.2,22-34.8,50.2-34.8,84.6c0,34.7,11.7,62.9,35.1,84.4s53.1,32.3,89.3,32.3c42.8,0,76.6-15.2,101.5-45.5l-32.8-24.9
	C1240.41,312.93,1217.51,324.23,1188.01,324.23z M1134.61,179.32c14-12.2,30.9-18.3,50.8-18.3c20.9,0,37,5.9,48.3,17.6
	c11.3,11.7,17.2,26.8,17.9,45.2h-140.4C1112.91,206.32,1120.71,191.43,1134.61,179.32z"/>
</svg>
